# xmcd
#
# Track frame offsets:
#	150
#	13135
#	27537
#	37554
#	50023
#	63340
#	76595
#	91400
#	105007
#	114659
#	125668
#	136782
#	151569
#	161896
#	176580
#	188332
#	206211
#	226098
#	236195
#	247790
#
# Disc length: 3448
#
# Revision: 1
# Processed by: cddbd v1.5.1PL0 Copyright (c) Steve Scherf et al.
# Submitted via: EasyCDDAExtractor 4.6.0.1
# Normalized: r0:DSETVAR1
#
DISCID=ef0d7614
DTITLE=Various Artist - Superhits Of Country CD 8
DYEAR=1900
DGENRE=
TTITLE0=Lynn Anderson - Top Of The World
TTITLE1=Roy Clark - Tips Of My Fingers
TTITLE2=Merle Haggard - Mama Tried
TTITLE3=Crystal Gayle - Don't It Make My Brown Eyes Blue
TTITLE4=Charlie Rich - Most Beautiful Girl In The World
TTITLE5=Nancy Peppers - Watch Me Fall Apart
TTITLE6=Don Gibson - I Can't Stop Lovin' You
TTITLE7=Tymmy Wynette - D-I-V-O-R-C-E
TTITLE8=Charley Pride - Kiss An Angel Good Mornin' (Live)
TTITLE9=The Everly Brothers - Devoted To You
TTITLE10=Hank Thompson - Humpty Dumpty Heart
TTITLE11=Loretta Lynn - Coal Miner's Daughter (Live)
TTITLE12=Rick Nelson - Never Be Anyone Else But You
TTITLE13=The Bellamy Brothers - If I Said You Had A Beautiful Body
TTITLE14=Patsy Cline - I've Loved And Lost Again
TTITLE15=The Gatlin Brothers - Love Is Just A Game
TTITLE16=Becky Hobbs - Angels Among Us
TTITLE17=Johnny Cash - Ballad Of A Teenage Queen
TTITLE18=Sandy Posey - Single Girl
TTITLE19=Hank Locklin - Please Help Me I'm Falling
EXTD=
EXTT0=
EXTT1=
EXTT2=
EXTT3=
EXTT4=
EXTT5=
EXTT6=
EXTT7=
EXTT8=
EXTT9=
EXTT10=
EXTT11=
EXTT12=
EXTT13=
EXTT14=
EXTT15=
EXTT16=
EXTT17=
EXTT18=
EXTT19=
PLAYORDER=
